<svg width="2560" height="397" viewBox="0 0 2560 397" fill="none" xmlns="http://www.w3.org/2000/svg">
<path d="M0 396.863L67.8467 143.151H224.635L230.907 120.345C231.477 118.064 231.762 115.974 231.762 114.073C231.762 110.272 230.717 106.947 228.626 104.096C225.395 99.7248 221.024 97.5393 215.513 97.5393H80.1047L106.046 0.615479H291.342C315.288 0.615479 333.342 8.88251 345.505 25.4166C353.487 36.4393 357.478 48.8873 357.478 62.7608C357.478 69.6024 356.433 76.9192 354.342 84.7112L329.541 177.359C324.22 197.124 312.627 211.377 294.762 220.119C304.265 226.391 309.016 235.513 309.016 247.486C309.016 252.237 308.256 257.369 306.735 262.88L270.817 396.863H156.789L192.707 262.88C193.278 260.599 193.563 258.509 193.563 256.608C193.563 252.807 192.517 249.482 190.427 246.631C187.196 242.26 182.825 240.074 177.314 240.074H155.933L114.028 396.863H0Z" fill="white"/>
<path d="M521.393 174.223L459.818 299.939H518.542L521.393 174.223ZM521.963 143.151L523.104 97.5393H393.682L419.623 0.615479H597.792C628.58 0.615479 643.973 12.7785 643.973 37.1044V41.0954L628.58 396.863H297.898L422.189 143.151H521.963Z" fill="white"/>
<path d="M817.011 299.939H923.912L897.971 396.863H741.182C717.236 396.863 699.182 388.596 687.019 372.062C679.037 361.229 675.046 348.876 675.046 335.003C675.046 327.971 676.091 320.559 678.182 312.767L739.187 84.7112C745.268 61.7155 758.762 41.9506 779.667 25.4166C800.762 8.88251 823.282 0.615479 847.228 0.615479H1004.02L978.075 97.5393H871.174C865.663 97.5393 860.151 99.7248 854.64 104.096C849.129 108.467 845.518 113.883 843.807 120.345L801.617 277.133C801.047 279.414 800.762 281.505 800.762 283.405C800.762 287.206 801.807 290.532 803.898 293.382C807.128 297.754 811.5 299.939 817.011 299.939Z" fill="white"/>
<path d="M1020.84 97.5393L1046.78 0.615479H1289.09L1263.15 97.5393H1020.84ZM1008.58 143.151H1222.38L1196.44 240.074H1096.66L1080.7 299.939H1208.98L1183.04 396.863H940.731L1008.58 143.151Z" fill="white"/>
<path d="M2003.88 143.151L1928.27 396.863H1814.24L1894.29 143.151H2003.88Z" fill="white"/>
<path d="M2180.75 73.5937L2236.91 31.1183C2249.45 21.2358 2261.62 13.729 2273.4 8.59771C2285.37 3.27641 2301.53 0.615751 2321.86 0.615751H2386L2360.06 97.5396H2060.74L2086.68 0.615751H2200.42L2180.75 73.5937ZM2136.57 240.075L2094.66 396.863H1980.63L2048.48 143.151H2169.63C2210.49 143.151 2237.01 158.45 2249.17 189.047L2327.28 396.863H2197L2146.54 240.075H2136.57Z" fill="white"/>
<path d="M2038.88 0.615751L2013.48 97.5396H1903.72L1936.64 0.615751H2038.88Z" fill="white"/>
<path d="M2003.88 143.151L1928.27 396.863H1814.24L1894.29 143.151H2003.88Z" fill="white"/>
<path d="M2038.88 0.615751L2013.48 97.5396H1903.72L1936.64 0.615751H2038.88Z" fill="white"/>
<path d="M1562.59 230.203L1480.91 397H1374.95C1344.1 397 1328.68 384.814 1328.68 360.442V356.443L1402.59 0H1508.94L1448.06 230.203L1560.88 0H1687.12L1676.55 230.203L1789.37 0H1903.9L1709.4 397H1603.44C1572.59 397 1557.17 384.814 1557.17 360.442V356.443L1562.59 230.203Z" fill="white"/>
<path d="M2516.91 143.151L2441.31 396.863H2327.28L2407.33 143.151H2516.91Z" fill="white"/>
<path d="M2550.64 0.615751L2526.52 97.5396H2417.55L2447.05 0.615751H2550.64Z" fill="white"/>
<path d="M2516.91 143.151L2441.31 396.863H2327.28L2407.33 143.151H2516.91Z" fill="white"/>
<path d="M2550.64 0.615751L2526.52 97.5396H2417.55L2447.05 0.615751H2550.64Z" fill="white"/>
</svg>
