<svg width="2659" height="2659" viewBox="0 0 2659 2659" fill="none" xmlns="http://www.w3.org/2000/svg">
<rect width="2659" height="2659" fill="#CC0000"/>
<path d="M148.816 1968.66L358.99 1182.72H844.685L864.113 1112.07C865.879 1105.01 866.762 1098.53 866.762 1092.64C866.762 1080.87 863.524 1070.57 857.048 1061.74C847.04 1048.19 833.5 1041.42 816.427 1041.42H396.962L477.323 741.176H1051.33C1125.51 741.176 1181.43 766.786 1219.11 818.004C1243.84 852.15 1256.2 890.712 1256.2 933.688C1256.2 954.882 1252.96 977.548 1246.49 1001.69L1169.66 1288.69C1153.18 1349.91 1117.26 1394.07 1061.92 1421.15C1091.36 1440.58 1106.08 1468.84 1106.08 1505.93C1106.08 1520.64 1103.72 1536.54 1099.01 1553.61L987.745 1968.66H634.512L745.78 1553.61C747.546 1546.55 748.429 1540.07 748.429 1534.18C748.429 1522.41 745.191 1512.11 738.715 1503.28C728.707 1489.74 715.166 1482.97 698.094 1482.97H631.862L502.049 1968.66H148.816Z" fill="white"/>
<path d="M1563.54 930.697L1339.58 1387.68L1457.49 941.828L1462.8 921.739H1442.03H1163.79H1150.76L1148.12 934.489L954.744 1867.02L954.411 1868.63V1870.27V1880.73C954.411 1916.22 965.827 1945.33 990.754 1965.02C1014.96 1984.15 1049.43 1992.38 1091.46 1992.38H1368.68H1378.66L1383.05 1983.42L1563.12 1615.72L1552.21 1869.59L1552.19 1869.93V1870.27V1880.73C1552.19 1916.22 1563.61 1945.33 1588.53 1965.02C1612.74 1984.15 1647.21 1992.38 1689.24 1992.38H1966.46H1976.44L1980.83 1983.42L2489.69 944.776L2500.97 921.739H2475.32H2175.68H2165.71L2161.32 930.697L1900.04 1463.83L1924.16 938.471L1924.93 921.739H1908.18H1577.9H1567.93L1563.54 930.697Z" fill="white" stroke="#CC0000" stroke-width="31.9975"/>
<path fill-rule="evenodd" clip-rule="evenodd" d="M2570.98 734.623H2272.57L2189.1 905.61H2487.51L2570.98 734.623Z" fill="white"/>
</svg>
